<?xml version="1.0" encoding="UTF-8"?>
<svg id="Layer_2" data-name="Layer 2" xmlns="http://www.w3.org/2000/svg" viewBox="0 0 99.01 99.01">
  <defs>
    <style>
      .cls-1 {
        fill: #00a651;
      }
    </style>
  </defs>
  <g id="PWD_PAGE" data-name="PWD PAGE">
    <g id="Key">
      <g id="Correct_Icon_Key" data-name="Correct Icon Key">
        <path class="cls-1" d="m72.2,32.63c-.51-.51-1.2-.79-1.92-.79h-.01c-.73,0-1.41.29-1.93.81l-27.68,27.93-9.99-9.99c-1.06-1.06-2.8-1.06-3.86,0-.52.52-.8,1.2-.8,1.93s.28,1.42.8,1.93l11.93,11.93c.52.52,1.2.8,1.93.8h0c.73,0,1.42-.29,1.93-.81l29.61-29.87c1.06-1.07,1.05-2.8-.02-3.86Z"/>
        <path class="cls-1" d="m49.5,5c24.54,0,44.5,19.96,44.5,44.5s-19.96,44.5-44.5,44.5S5,74.04,5,49.5,24.96,5,49.5,5m0-5C22.16,0,0,22.16,0,49.5s22.16,49.5,49.5,49.5,49.5-22.16,49.5-49.5S76.84,0,49.5,0h0Z"/>
      </g>
    </g>
  </g>
</svg>