<?xml version="1.0" encoding="UTF-8"?>
<svg id="Layer_2" data-name="Layer 2" xmlns="http://www.w3.org/2000/svg" viewBox="0 0 100 100">
  <defs>
    <style>
      .cls-1, .cls-2 {
        fill: #fff;
      }

      .cls-3 {
        opacity: .6;
      }

      .cls-2 {
        opacity: .2;
      }
    </style>
  </defs>
  <g id="PWD_PAGE" data-name="PWD PAGE">
    <g id="Key">
      <g id="Keys">
        <g id="eight">
          <circle class="cls-2" cx="50" cy="50" r="50"/>
          <g class="cls-3">
            <path class="cls-1" d="m37.6,57.96c0-1.98.52-3.77,1.56-5.35,1.04-1.58,2.61-2.79,4.71-3.63-1.59-.94-2.83-2.08-3.7-3.45-.88-1.36-1.32-2.89-1.32-4.58,0-2.69,1.05-4.93,3.16-6.71s4.8-2.67,8.08-2.67,6,.88,8.11,2.63c2.11,1.76,3.16,3.97,3.16,6.64,0,1.67-.47,3.18-1.42,4.53-.94,1.35-2.24,2.49-3.9,3.42,2.1.84,3.68,2.06,4.74,3.67,1.06,1.61,1.59,3.41,1.59,5.42,0,3.02-1.14,5.46-3.41,7.33-2.27,1.87-5.25,2.81-8.95,2.81s-6.64-.94-8.96-2.81c-2.31-1.87-3.47-4.29-3.47-7.26Zm7.19-.66c0,1.61.48,2.87,1.45,3.79s2.24,1.38,3.81,1.38c1.49,0,2.74-.47,3.73-1.4.99-.94,1.49-2.19,1.49-3.77,0-1.43-.48-2.65-1.45-3.68s-2.22-1.54-3.77-1.54-2.76.5-3.77,1.49c-1,.99-1.5,2.24-1.5,3.73Zm1.06-15.7c0,1.36.43,2.46,1.28,3.3.85.84,1.85,1.25,3,1.25s2.17-.41,3.03-1.23c.85-.82,1.28-1.93,1.28-3.32s-.42-2.46-1.27-3.25c-.84-.79-1.86-1.18-3.04-1.18s-2.25.4-3.06,1.21c-.81.8-1.22,1.88-1.22,3.22Z"/>
          </g>
        </g>
      </g>
    </g>
  </g>
</svg>