<?xml version="1.0" encoding="UTF-8"?>
<svg id="Layer_2" data-name="Layer 2" xmlns="http://www.w3.org/2000/svg" viewBox="0 0 100 100">
  <defs>
    <style>
      .cls-1, .cls-2 {
        fill: #fff;
      }

      .cls-3 {
        opacity: .6;
      }

      .cls-2 {
        opacity: .2;
      }
    </style>
  </defs>
  <g id="PWD_PAGE" data-name="PWD PAGE">
    <g id="Key">
      <g id="Keys">
        <g id="four">
          <circle class="cls-2" cx="50" cy="50" r="50"/>
          <g class="cls-3">
            <path class="cls-1" d="m58.46,32.17v22.25h3.32v5.81h-3.32v7.24h-7.38v-7.24h-14.54v-6.08c1.28-1.53,2.61-3.2,4-5.01,1.39-1.81,2.72-3.68,4-5.6,1.3-1.92,2.5-3.85,3.61-5.8s2.05-3.8,2.82-5.57h7.51Zm-15.16,22.25h7.78v-12.13c-.54,1.07-1.14,2.15-1.78,3.24-.65,1.09-1.3,2.16-1.96,3.21-.67,1.03-1.35,2.03-2.04,2.99-.69.96-1.35,1.86-1.99,2.69Z"/>
          </g>
        </g>
      </g>
    </g>
  </g>
</svg>