<?xml version="1.0" encoding="UTF-8"?>
<svg id="Layer_2" data-name="Layer 2" xmlns="http://www.w3.org/2000/svg" viewBox="0 0 100 100">
  <defs>
    <style>
      .cls-1, .cls-2 {
        fill: #fff;
      }

      .cls-3 {
        opacity: .6;
      }

      .cls-2 {
        opacity: .2;
      }
    </style>
  </defs>
  <g id="PWD_PAGE" data-name="PWD PAGE">
    <g id="Key">
      <g id="Keys">
        <g id="five">
          <circle class="cls-2" cx="50" cy="50" r="50"/>
          <g class="cls-3">
            <path class="cls-1" d="m37.35,61.41l6.03-3.35c.67,1.31,1.48,2.3,2.41,2.97.94.66,2.09,1,3.47,1,1.49,0,2.73-.47,3.72-1.42.98-.94,1.48-2.19,1.48-3.73,0-1.85-.64-3.22-1.93-4.11-1.29-.89-3.17-1.33-5.65-1.33-.9,0-1.95.04-3.15.11-1.2.07-2.39.18-3.57.31l1.33-19.69h18.68v6.35h-12.75l-.49,6.96c.64-.05,1.23-.09,1.76-.11.53-.03,1.18-.04,1.93-.04,3.63,0,6.46.96,8.52,2.88,2.05,1.92,3.08,4.5,3.08,7.75,0,3.56-1.2,6.47-3.59,8.72s-5.51,3.38-9.35,3.38c-2.72,0-5.08-.56-7.06-1.67-1.99-1.12-3.6-2.78-4.85-5Z"/>
          </g>
        </g>
      </g>
    </g>
  </g>
</svg>