<?xml version="1.0" encoding="UTF-8"?>
<svg id="Layer_2" data-name="Layer 2" xmlns="http://www.w3.org/2000/svg" viewBox="0 0 100 100">
  <defs>
    <style>
      .cls-1, .cls-2 {
        fill: #fff;
      }

      .cls-3 {
        opacity: .6;
      }

      .cls-2 {
        opacity: .2;
      }
    </style>
  </defs>
  <g id="PWD_PAGE" data-name="PWD PAGE">
    <g id="Key">
      <g id="Keys">
        <g id="nine">
          <circle class="cls-2" cx="50" cy="50" r="50"/>
          <g class="cls-3">
            <path class="cls-1" d="m62.3,48.12c0,6.37-1.24,11.28-3.72,14.75-2.48,3.47-5.91,5.21-10.29,5.21-2.58,0-4.71-.54-6.4-1.61-1.69-1.07-2.99-2.49-3.91-4.25l5.12-3.52c.54,1.1,1.23,1.94,2.08,2.54.84.59,1.89.89,3.14.89,1.77,0,3.37-.82,4.79-2.46,1.42-1.64,2.13-4.27,2.13-7.88l-.12-.05c-.74.97-1.7,1.74-2.88,2.31s-2.58.86-4.21.86c-2.97,0-5.34-.98-7.1-2.95-1.76-1.97-2.65-4.61-2.65-7.92,0-3.72,1.11-6.73,3.33-9.02,2.22-2.29,5.12-3.43,8.7-3.43,3.79,0,6.74,1.4,8.83,4.2,2.1,2.8,3.15,6.91,3.15,12.34Zm-7.36-4.13c0-1.77-.45-3.28-1.35-4.52-.9-1.24-2.06-1.86-3.47-1.86s-2.53.55-3.41,1.66-1.32,2.47-1.32,4.1c0,1.89.41,3.3,1.24,4.25.83.94,2.04,1.42,3.63,1.42,1.41,0,2.54-.49,3.4-1.48.85-.98,1.28-2.17,1.28-3.57Z"/>
          </g>
        </g>
      </g>
    </g>
  </g>
</svg>