<?xml version="1.0" encoding="UTF-8"?>
<svg id="Layer_2" data-name="Layer 2" xmlns="http://www.w3.org/2000/svg" viewBox="0 0 100 100">
  <defs>
    <style>
      .cls-1, .cls-2 {
        fill: #fff;
      }

      .cls-3 {
        opacity: .6;
      }

      .cls-2 {
        opacity: .2;
      }
    </style>
  </defs>
  <g id="PWD_PAGE" data-name="PWD PAGE">
    <g id="Key">
      <g id="Keys">
        <g id="six">
          <circle class="cls-2" cx="50" cy="50" r="50"/>
          <g class="cls-3">
            <path class="cls-1" d="m62.3,55.72c0,3.49-1.13,6.43-3.38,8.8-2.26,2.37-5.19,3.56-8.8,3.56-3.84,0-6.82-1.35-8.95-4.05-2.12-2.7-3.19-6.81-3.19-12.34,0-3.48.41-6.6,1.22-9.36.81-2.76,2-5.02,3.56-6.78,1.21-1.36,2.62-2.36,4.21-3,1.59-.64,3.33-.96,5.22-.96,2.18,0,4.13.55,5.85,1.66,1.71,1.11,3.02,2.56,3.92,4.37l-5.41,3.2c-.44-.97-1.04-1.74-1.8-2.33-.75-.58-1.69-.87-2.81-.87-.82,0-1.59.16-2.3.48s-1.37.81-1.96,1.46c-.82.89-1.43,2.06-1.83,3.51s-.62,3.08-.65,4.88h.22c.87-1.05,1.92-1.84,3.16-2.38,1.24-.53,2.65-.8,4.22-.8,2.9,0,5.21,1.01,6.93,3.03,1.71,2.02,2.57,4.66,2.57,7.92Zm-7.21.49c0-1.69-.41-3.04-1.22-4.06-.81-1.02-1.96-1.53-3.43-1.53s-2.67.56-3.54,1.69c-.87,1.12-1.3,2.43-1.3,3.93,0,1.72.43,3.11,1.3,4.17.87,1.06,1.99,1.59,3.37,1.59,1.51,0,2.69-.54,3.54-1.61.85-1.08,1.28-2.47,1.28-4.17Z"/>
          </g>
        </g>
      </g>
    </g>
  </g>
</svg>