<?xml version="1.0" encoding="UTF-8"?>
<svg id="Layer_2" data-name="Layer 2" xmlns="http://www.w3.org/2000/svg" viewBox="0 0 100 100">
  <defs>
    <style>
      .cls-1, .cls-2 {
        fill: #fff;
      }

      .cls-3 {
        opacity: .6;
      }

      .cls-2 {
        opacity: .2;
      }
    </style>
  </defs>
  <g id="PWD_PAGE" data-name="PWD PAGE">
    <g id="Key">
      <g id="Keys">
        <g id="three">
          <circle class="cls-2" cx="50" cy="50" r="50"/>
          <g class="cls-3">
            <path class="cls-1" d="m37.51,61.73l5.96-3.49c.54,1.12,1.32,2.02,2.33,2.72,1.01.7,2.25,1.05,3.73,1.05s2.78-.4,3.8-1.19c1.03-.8,1.54-1.96,1.54-3.48s-.68-2.78-2.05-3.61c-1.37-.83-3.25-1.25-5.65-1.27h-2.88v-6.05h2.63c2.3,0,4.02-.39,5.17-1.16,1.15-.77,1.72-1.99,1.72-3.67,0-1.26-.41-2.24-1.22-2.92-.81-.68-1.81-1.02-2.99-1.02-1.12,0-2.15.28-3.11.85-.96.57-1.76,1.46-2.4,2.67l-5.78-2.78c1-1.92,2.55-3.52,4.66-4.81s4.61-1.93,7.49-1.93c3.61,0,6.39.82,8.34,2.45,1.95,1.63,2.93,3.88,2.93,6.76,0,1.92-.52,3.6-1.55,5.05-1.03,1.44-2.59,2.5-4.68,3.17v.12c2.25.39,4.02,1.34,5.33,2.84,1.3,1.5,1.96,3.3,1.96,5.4,0,3.3-1.18,5.91-3.53,7.83-2.35,1.92-5.44,2.88-9.27,2.88-3.07,0-5.63-.55-7.68-1.65-2.05-1.1-3.65-2.68-4.8-4.75Z"/>
          </g>
        </g>
      </g>
    </g>
  </g>
</svg>