<?xml version="1.0" encoding="UTF-8"?>
<svg id="Layer_2" data-name="Layer 2" xmlns="http://www.w3.org/2000/svg" viewBox="0 0 100 100">
  <defs>
    <style>
      .cls-1, .cls-2 {
        fill: #fff;
      }

      .cls-3 {
        opacity: .6;
      }

      .cls-2 {
        opacity: .2;
      }
    </style>
  </defs>
  <g id="PWD_PAGE" data-name="PWD PAGE">
    <g id="Key">
      <g id="Keys">
        <g id="two">
          <circle class="cls-2" cx="50" cy="50" r="50"/>
          <g class="cls-3">
            <path class="cls-1" d="m38.56,67.46v-2.66c0-1.8.3-3.42.91-4.86.61-1.44,1.37-2.73,2.29-3.88.92-1.13,1.92-2.14,3.02-3.01,1.09-.88,2.13-1.67,3.11-2.38,1.03-.74,1.94-1.44,2.72-2.12.78-.67,1.43-1.34,1.96-2.02.54-.66.96-1.34,1.27-2.07.3-.72.46-1.57.46-2.54,0-1.26-.41-2.26-1.22-2.98-.81-.72-1.9-1.08-3.26-1.08-1.25,0-2.34.41-3.29,1.23s-1.75,1.94-2.42,3.37l-6.25-2.56c1.18-2.58,2.85-4.61,5.01-6.1,2.16-1.49,4.79-2.24,7.91-2.24,3.46,0,6.21.91,8.26,2.72,2.04,1.81,3.06,4.25,3.06,7.3,0,1.62-.25,3.07-.75,4.33-.5,1.26-1.17,2.41-2.01,3.45-.82,1.03-1.76,2-2.82,2.89-1.06.89-2.17,1.74-3.33,2.55-.74.56-1.46,1.1-2.18,1.61-.71.52-1.33,1.04-1.86,1.56-.56.54-.97,1.07-1.24,1.58s-.41.99-.41,1.45h14.54v6.45h-23.48Z"/>
          </g>
        </g>
      </g>
    </g>
  </g>
</svg>