<?xml version="1.0" encoding="UTF-8"?>
<svg id="Layer_2" data-name="Layer 2" xmlns="http://www.w3.org/2000/svg" viewBox="0 0 99.01 99.01">
  <defs>
    <style>
      .cls-1 {
        fill: #ee3968;
      }
    </style>
  </defs>
  <g id="PWD_PAGE" data-name="PWD PAGE">
    <g id="Key">
      <g id="Wrong_Icon_Key" data-name="Wrong Icon Key">
        <path class="cls-1" d="m54.4,49.5l17.09-17.09c1.35-1.35,1.35-3.54,0-4.9s-3.54-1.35-4.9,0l-17.09,17.09-17.09-17.09c-1.35-1.35-3.54-1.35-4.9,0s-1.35,3.55,0,4.9l17.09,17.09-17.09,17.09c-1.35,1.35-1.35,3.54,0,4.9.68.68,1.56,1.01,2.45,1.01s1.77-.34,2.45-1.01l17.09-17.09,17.09,17.09c.68.68,1.56,1.01,2.45,1.01s1.77-.34,2.45-1.01c1.35-1.35,1.35-3.55,0-4.9l-17.09-17.09Z"/>
        <path class="cls-1" d="m49.5,5c24.54,0,44.5,19.96,44.5,44.5s-19.96,44.5-44.5,44.5S5,74.04,5,49.5,24.96,5,49.5,5m0-5C22.16,0,0,22.16,0,49.5s22.16,49.5,49.5,49.5,49.5-22.16,49.5-49.5S76.84,0,49.5,0h0Z"/>
      </g>
    </g>
  </g>
</svg>