<?xml version="1.0" encoding="UTF-8"?>
<svg id="Layer_2" data-name="Layer 2" xmlns="http://www.w3.org/2000/svg" viewBox="0 0 99.01 99.01">
  <defs>
    <style>
      .cls-1, .cls-2 {
        fill: #fff;
      }

      .cls-3 {
        opacity: .6;
      }

      .cls-2 {
        opacity: .2;
      }
    </style>
  </defs>
  <g id="PWD_PAGE" data-name="PWD PAGE">
    <g id="Key">
      <g id="Keys">
        <g id="zero">
          <circle class="cls-2" cx="49.5" cy="49.5" r="49.5"/>
          <g class="cls-3">
            <path class="cls-1" d="m49.48,67.58c-4.27,0-7.38-1.48-9.35-4.43s-2.95-7.38-2.95-13.27,1.07-10.78,3.21-13.99c2.14-3.21,5.17-4.81,9.09-4.81,4.5,0,7.67,1.5,9.52,4.49,1.85,3,2.78,7.49,2.78,13.5s-1.02,10.55-3.06,13.73c-2.04,3.18-5.12,4.77-9.24,4.77Zm-.03-30.57c-1.57,0-2.7,1.05-3.37,3.16s-1.01,5.28-1.01,9.51c0,3.97.35,6.95,1.05,8.95.7,1.99,1.82,2.99,3.36,2.99,1.71,0,2.86-1.03,3.47-3.08.61-2.05.91-5.13.91-9.23s-.32-7.18-.95-9.23-1.78-3.08-3.46-3.08Z"/>
          </g>
        </g>
      </g>
    </g>
  </g>
</svg>