<?xml version="1.0" encoding="UTF-8"?>
<svg id="Layer_2" data-name="Layer 2" xmlns="http://www.w3.org/2000/svg" viewBox="0 0 85.83 111.62">
  <defs>
    <style>
      .cls-1 {
        fill: #fff;
      }
    </style>
  </defs>
  <g id="FP_PAGE" data-name="FP PAGE">
    <g id="FP">
      <path class="cls-1" d="m38.04,60.04c-1.2,8.52-3.04,16.8-5.96,24.91-2.25,6.24-4.43,12.34-5.62,18.89-.69,3.78,5.09,5.39,5.79,1.6,1.19-6.55,3.37-12.65,5.62-18.89,2.92-8.1,4.76-16.38,5.96-24.91.53-3.78-5.25-5.41-5.79-1.6h0Z"/>
      <path class="cls-1" d="m42.68,108.73c.41-15.29,28.21-63.56-4.39-63.17-3.86.05-3.87,6.05,0,6,5.1-.06,9.03,1.46,9.8,6.9s-.94,11.56-2.42,16.86c-3.03,10.83-8.69,22.01-8.99,33.4-.1,3.86,5.9,3.86,6,0h0Z"/>
      <path class="cls-1" d="m29.28,56.01c-2.98,13.37-5.77,26.87-12.34,39.04-1.83,3.4,3.34,6.43,5.18,3.03,6.82-12.64,9.84-26.57,12.94-40.47.84-3.76-4.94-5.37-5.79-1.6h0Z"/>
      <path class="cls-1" d="m14.77,88.81c3.71-8.06,4.98-16.78,7.54-25.22,1.13-3.7-4.66-5.28-5.79-1.6-2.4,7.89-3.47,16.25-6.94,23.78-1.6,3.48,3.57,6.54,5.18,3.03h0Z"/>
      <path class="cls-1" d="m25.28,55.05c3.04-9.18,8.06-15.39,18.38-14.12,3.82.47,3.79-5.53,0-6-13.04-1.6-20.36,7.03-24.17,18.53-1.22,3.67,4.57,5.25,5.79,1.6h0Z"/>
      <path class="cls-1" d="m51.88,42.89c7.1,4.64,8.04,12.41,7.15,20.24-.43,3.83,5.57,3.8,6,0,1.14-10.13-1.23-19.61-10.13-25.42-3.24-2.12-6.25,3.08-3.03,5.18h0Z"/>
      <path class="cls-1" d="m57.29,71.44c-2,11.25-6.61,21.73-8.95,32.88-.79,3.77,4.99,5.38,5.79,1.6,2.34-11.16,6.95-21.63,8.95-32.88.67-3.78-5.11-5.4-5.79-1.6h0Z"/>
      <path class="cls-1" d="m8.59,74.4c2.34-7.97,4.84-15.88,7.51-23.75,1.24-3.66-4.55-5.24-5.79-1.6-2.67,7.86-5.17,15.78-7.51,23.75-1.09,3.71,4.7,5.3,5.79,1.6h0Z"/>
      <path class="cls-1" d="m19.55,42.56c7.32-12.47,23.33-17.47,35.74-9.33,3.24,2.12,6.25-3.07,3.03-5.18-15.12-9.92-35.05-3.67-43.95,11.49-1.96,3.34,3.23,6.36,5.18,3.03h0Z"/>
      <path class="cls-1" d="m62.87,38.27c14.04,16.93,4.6,37.14.06,55.72-.92,3.75,4.87,5.35,5.79,1.6,2.56-10.47,6.46-20.63,7.54-31.43s-1.93-21.44-9.14-30.14c-2.47-2.98-6.69,1.29-4.24,4.24h0Z"/>
      <path class="cls-1" d="m5.92,47.03c4.2-14.38,16.86-26.4,31.79-28.89,20.72-3.46,35.01,13.84,42.65,30.85,1.58,3.52,6.75.47,5.18-3.03-8.72-19.43-25.4-37.34-48.54-33.75C19.68,14.9,4.99,28.79.13,45.44c-1.08,3.71,4.7,5.3,5.79,1.6h0Z"/>
      <path class="cls-1" d="m19.76,13.57c13.55-10.16,34.3-10.54,46.99,1.59,2.79,2.67,7.04-1.57,4.24-4.24C56.49-2.94,32.45-3.41,16.73,8.39c-3.05,2.29-.06,7.5,3.03,5.18h0Z"/>
    </g>
  </g>
</svg>